HIERARCHY
ROOT SpineBase
{
  OFFSET 0.000000 0.000000 0.000000
  CHANNELS 6 Xposition Yposition Zposition Zrotation Xrotation Yrotation
  JOINT SpineMid
  {
    OFFSET -0.000000 31.691320 0.000000
    CHANNELS 3 Zrotation Xrotation Yrotation
    JOINT SpineShoulder
    {
      OFFSET 0.287103 23.524776 -0.787571
      CHANNELS 3 Zrotation Xrotation Yrotation
      JOINT Neck
      {
        OFFSET 0.164919 7.774215 -0.600502
        CHANNELS 3 Zrotation Xrotation Yrotation
        JOINT Head
        {
          OFFSET -4.028189 14.204864 -1.820686
          CHANNELS 3 Zrotation Xrotation Yrotation
          End Site
          {
            OFFSET 0 0 0
          }
        }
      }
      JOINT ShoulderLeft
      {
        OFFSET -16.528885 -5.382461 6.337878
        CHANNELS 3 Zrotation Xrotation Yrotation
        JOINT ElbowLeft
        {
          OFFSET -7.011697 -26.147042 4.267664
          CHANNELS 3 Zrotation Xrotation Yrotation
          JOINT WristLeft
          {
            OFFSET -13.117725 -11.919600 -18.250432
            CHANNELS 3 Zrotation Xrotation Yrotation
            JOINT HandLeft
            {
              OFFSET -2.978370 -2.486554 -7.136445
              CHANNELS 3 Zrotation Xrotation Yrotation
              JOINT HandTipLeft
              {
                OFFSET -4.123620 -1.373705 -10.702914
                CHANNELS 3 Zrotation Xrotation Yrotation
                End Site
                {
                  OFFSET 0 0 0
                }
              }
              JOINT ThumbLeft
              {
                OFFSET 7.226791 -2.379094 -4.929508
                CHANNELS 3 Zrotation Xrotation Yrotation
                End Site
                {
                  OFFSET 0 0 0
                }
              }
            }
          }
        }
      }
      JOINT ShoulderRight
      {
        OFFSET 14.064923 -3.675783 -9.093619
        CHANNELS 3 Zrotation Xrotation Yrotation
        JOINT ElbowRight
        {
          OFFSET 7.654353 -22.973558 -1.903749
          CHANNELS 3 Zrotation Xrotation Yrotation
          JOINT WristRight
          {
            OFFSET -4.827211 -14.211913 -19.245632
            CHANNELS 3 Zrotation Xrotation Yrotation
            JOINT HandRight
            {
              OFFSET -5.495212 -1.971596 -6.417465
              CHANNELS 3 Zrotation Xrotation Yrotation
              JOINT HandTipRight
              {
                OFFSET -3.621653 -2.110259 -3.892506
                CHANNELS 3 Zrotation Xrotation Yrotation
                End Site
                {
                  OFFSET 0 0 0
                }
              }
              JOINT ThumbRight
              {
                OFFSET 0.504634 -0.731955 -4.022235
                CHANNELS 3 Zrotation Xrotation Yrotation
                End Site
                {
                  OFFSET 0 0 0
                }
              }
            }
          }
        }
      }
    }
  }
  JOINT HipLeft
  {
    OFFSET -6.818004 -0.427446 -0.627421
    CHANNELS 3 Zrotation Xrotation Yrotation
    JOINT KneeLeft
    {
      OFFSET -0.480008 -33.792871 4.755673
      CHANNELS 3 Zrotation Xrotation Yrotation
      JOINT AnkleLeft
      {
        OFFSET 3.311459 -35.328207 7.117820
        CHANNELS 3 Zrotation Xrotation Yrotation
        JOINT FootLeft
        {
          OFFSET -1.772743 -8.046365 -6.501959
          CHANNELS 3 Zrotation Xrotation Yrotation
          End Site
          {
            OFFSET 0 0 0
          }
        }
      }
    }
  }
  JOINT HipRight
  {
    OFFSET 7.766409 2.285854 -6.795204
    CHANNELS 3 Zrotation Xrotation Yrotation
    JOINT KneeRight
    {
      OFFSET 4.212427 -30.912993 -0.965124
      CHANNELS 3 Zrotation Xrotation Yrotation
      JOINT AnkleRight
      {
        OFFSET 2.275103 -39.848561 7.711458
        CHANNELS 3 Zrotation Xrotation Yrotation
        JOINT FootRight
        {
          OFFSET -3.643314 -5.497072 -9.809189
          CHANNELS 3 Zrotation Xrotation Yrotation
          End Site
          {
            OFFSET 0 0 0
          }
        }
      }
    }
  }
}
MOTION
Frames: 7
Frame Time: 0.033333
-41.804537 81.139872 338.884319 -1.142456 -0.700447 17.962345 0.728453 -0.289528 -17.975664 0.557585 -0.427898 0.040207 0.385406 -6.893464 -2.203657 0.000000 0.000000 0.000000 53.846559 84.501434 -81.566185 144.773911 -9.336349 39.630040 37.088038 -29.298137 22.979704 -58.211753 2.801448 19.874158 0.000000 0.000000 0.000000 0.000000 0.000000 0.000000 -8.100159 23.219753 9.797201 -44.868270 14.100619 33.727510 -6.353473 3.670633 -4.509108 10.801558 -15.266247 -15.527155 0.000000 0.000000 0.000000 0.000000 0.000000 0.000000 2.528053 2.196613 -17.948246 -0.586027 -2.168386 -0.062587 -0.596818 -8.406675 2.435353 0.000000 0.000000 0.000000 4.679664 2.943926 -17.662112 -3.229011 -3.706581 -0.697888 -3.756394 13.170865 0.123644 0.000000 0.000000 0.000000
-41.748078 80.894963 338.909906 -0.932604 -0.809354 14.642449 0.691539 -0.237780 -14.649457 0.486976 -0.501736 0.044681 -0.860220 -6.413880 -2.339125 0.000000 0.000000 0.000000 39.886544 83.392750 -66.746253 132.243372 -17.214169 31.693736 56.627401 -24.170870 34.067436 -49.788663 3.994770 16.998790 0.000000 0.000000 0.000000 0.000000 0.000000 0.000000 -1.972360 21.469458 7.120781 -51.131956 15.368870 36.319189 -5.217470 -1.853953 -4.474950 1.782616 -15.994618 -9.710308 0.000000 0.000000 0.000000 0.000000 0.000000 0.000000 2.057211 1.934176 -14.617321 -0.569726 -1.581676 -0.065443 -0.926651 -9.050386 2.850220 0.000000 0.000000 0.000000 4.522567 4.292774 -14.262099 -3.236375 -4.665551 -0.870532 -2.910436 11.390942 -0.192978 0.000000 0.000000 0.000000
-41.691331 80.749375 338.887026 -0.790232 -0.845976 13.048440 0.644946 -0.256082 -13.050508 0.339515 -0.600454 0.041348 -1.513541 -6.008354 -2.395233 0.000000 0.000000 0.000000 20.272551 79.753067 -45.213649 116.144201 -25.339123 19.334448 58.517558 -25.379146 29.985652 -0.868033 -3.912853 21.203147 0.000000 0.000000 0.000000 0.000000 0.000000 0.000000 -1.871825 22.119864 7.272302 -50.377780 13.023016 35.248128 -8.473102 -10.336664 2.745496 -0.936143 -20.380687 -12.099507 0.000000 0.000000 0.000000 0.000000 0.000000 0.000000 1.769843 1.760815 -13.019219 -0.537057 -1.268606 -0.063403 -1.316738 -9.765999 3.328891 0.000000 0.000000 0.000000 4.339584 4.917867 -12.626800 -3.294206 -5.155185 -0.971456 -1.615214 8.537645 -0.542990 0.000000 0.000000 0.000000
-41.632184 80.662770 338.819510 -0.721462 -0.813325 13.173892 0.576234 -0.339380 -13.173515 0.132489 -0.703215 0.029744 -1.411313 -5.728847 -2.364020 0.000000 0.000000 0.000000 9.354840 73.359589 -31.487152 97.140624 -31.055563 5.145006 73.544650 -22.998601 35.967830 -20.565711 -8.912730 4.048886 0.000000 0.000000 0.000000 0.000000 0.000000 0.000000 -3.654363 22.583671 8.008821 -48.318494 13.662451 34.619460 -11.920334 -22.721874 9.048358 0.772443 -19.379540 -21.115799 0.000000 0.000000 0.000000 0.000000 0.000000 0.000000 1.634840 1.696529 -13.148157 -0.484278 -1.210864 -0.055983 -1.494080 -10.326038 3.605312 0.000000 0.000000 0.000000 4.204738 4.815768 -12.755206 -3.362859 -5.101183 -0.991615 0.517685 3.294513 -0.798392 0.000000 0.000000 0.000000
-41.622150 80.787446 338.757181 -0.798592 -0.802542 15.110485 0.530344 -0.417933 -15.113256 -0.039164 -0.780392 0.014252 -0.627402 -5.611442 -2.265887 0.000000 0.000000 0.000000 5.560194 66.030216 -24.433166 82.078152 -32.716672 -9.943173 60.450743 -28.331502 19.491128 -7.927313 -13.460775 8.160751 0.000000 0.000000 0.000000 0.000000 0.000000 0.000000 -2.872151 22.413097 7.755858 -48.572275 14.431270 34.688133 -10.068018 -35.424275 11.647206 1.456075 -9.509024 -24.708266 0.000000 0.000000 0.000000 0.000000 0.000000 0.000000 1.789237 1.938255 -15.100844 -0.423886 -1.534971 -0.043443 -1.445597 -11.237872 3.800073 0.000000 0.000000 0.000000 4.343738 4.130519 -14.744134 -3.428197 -4.630200 -0.913020 1.175496 1.932937 -1.004545 0.000000 0.000000 0.000000
-41.641052 81.087346 338.678255 -0.923484 -0.750093 18.094444 0.530981 -0.517114 -18.100579 -0.122259 -0.796659 0.004363 0.088845 -5.899288 -2.253416 0.000000 0.000000 0.000000 5.420106 60.606769 -21.496838 68.721977 -30.711921 -22.784623 41.333049 -27.138268 0.777990 13.020148 -15.346528 19.990740 0.000000 0.000000 0.000000 0.000000 0.000000 0.000000 -2.038319 22.190666 7.467033 -47.224277 15.636336 33.080884 -8.983280 -39.774773 13.486639 2.438361 -5.317710 -26.439117 0.000000 0.000000 0.000000 0.000000 0.000000 0.000000 2.073741 2.253657 -18.107214 -0.347592 -2.036153 -0.026102 -1.561983 -11.074253 3.846732 0.000000 0.000000 0.000000 4.475678 3.015533 -17.803654 -3.506430 -3.864276 -0.777197 0.280572 4.875023 -1.207430 0.000000 0.000000 0.000000
-41.705058 81.629655 338.607849 -1.120087 -0.726434 22.018027 0.527526 -0.591211 -22.030896 -0.131874 -0.783072 -0.004238 0.917238 -6.340679 -2.249745 0.000000 0.000000 0.000000 5.717397 57.184500 -19.924059 57.650553 -24.541591 -34.767829 36.705571 -22.657766 -14.371662 4.984042 -17.089535 23.082393 0.000000 0.000000 0.000000 0.000000 0.000000 0.000000 -1.266938 22.101835 7.259864 -45.833671 16.710421 31.312198 -6.490822 -44.360978 15.032753 2.382770 -0.221218 -26.203194 0.000000 0.000000 0.000000 0.000000 0.000000 0.000000 2.612730 2.673067 -22.058076 -0.298756 -2.731183 -0.010329 -1.541327 -10.039436 3.569385 0.000000 0.000000 0.000000 4.550566 1.595725 -21.823948 -3.709319 -2.809321 -0.617245 1.220915 2.929879 -1.448840 0.000000 0.000000 0.000000
